<?xml version="1.0" encoding="utf-8" ?><svg xmlns="http://www.w3.org/2000/svg" xmlns:xlink="http://www.w3.org/1999/xlink" width="1024" height="1024" viewBox="0 0 1024 1024"><path fill="#4B5149" d="M0 0L478.167 0L545.975 0L1024 0L1024 479.646L1024 544.795L1024 1024L545.869 1024L478.676 1024L0 1024L0 544.396L0 475.127L0 0Z"/><path fill="#FEFEFE" d="M545.869 1024C546.417 1021.48 550.651 1022.18 553.143 1022.15C575.468 1021.88 597.939 1017.75 619.688 1013.17C684.281 999.505 745.558 973.277 800.037 935.981C905.381 864.08 980.313 755.662 1010.34 631.704C1014.79 613.072 1018.05 594.174 1020.09 575.126C1020.75 569.076 1021.33 563.016 1021.81 556.949C1022.04 553.726 1022.15 548.328 1022.72 545.353L1024 544.795L1024 1024L545.869 1024Z"/><path fill="#FEFEFE" d="M545.975 0L1024 0L1024 479.646C1023.82 479.474 1022.64 478.188 1022.63 478.161C1021.61 470.915 1021.65 459.4 1020.91 452.469C1017.1 416.574 1008.89 380.887 997.392 346.769C942.768 187.149 813.351 64.4561 651.047 18.4172C625.679 11.2813 599.799 6.11381 573.636 2.96081C569.501 2.4298 547.825 1.54554 545.975 0Z"/><path fill="#FEFEFE" d="M0 544.396C0.367896 544.797 0.735792 545.198 1.10369 545.598C2.1585 582.864 9.80921 623.021 20.4882 658.61C59.5169 788.302 148.08 897.39 266.985 962.235C304.216 982.987 344.068 998.641 385.471 1008.78C411.21 1015.05 438.015 1020.3 464.487 1022.04C467.857 1022.26 476.91 1021.42 478.676 1024L0 1024L0 544.396Z"/><path fill="#FEFEFE" d="M0 0L478.167 0C476.922 0.829528 476.227 1.17875 474.7 1.25556C459.493 2.02024 444.885 3.40312 429.802 5.77952C409.046 9.16216 388.513 13.7992 368.318 19.6653C200.53 68.7941 69.2507 199.892 19.8909 367.613C13.9055 388.059 9.21123 408.862 5.83592 429.897C4.71567 436.668 3.46056 443.471 2.72794 450.734C2.0538 457.417 1.97043 467.193 1.12261 474.161C0.748408 474.483 0.374204 474.805 0 475.127L0 0Z"/><path fill="#351914" d="M501.833 246.204C517.003 246.945 528.921 259.789 540.635 268.052C546.061 271.811 551.873 274.98 557.972 277.505C578.06 285.683 606.841 289.832 629.031 295.945C658.006 303.926 677.392 312.844 704.373 324.881C709.695 315.72 714.656 307.572 721.751 299.981C804.377 211.588 945.7 296.972 917.756 410.534C916.581 415.309 914.918 419.855 913.038 424.211C901.722 449.877 880.833 470.112 854.819 480.605C858.89 487.254 862.28 494.78 865.573 501.879C878.885 530.529 888.258 560.838 896.603 591.246C902.423 612.451 906.154 634.213 914.561 654.655C918.144 663.369 924.075 672.61 926.158 681.659C928.267 690.825 928.259 700.271 917.123 702.33C923.237 716.374 929.839 740.525 925.623 755.809C922.414 767.442 912.634 765.431 903.828 762.108C900.139 791.218 880.977 819.917 860.073 840.46C794.394 905.004 697.333 936.44 608.133 950.45C589.37 953.397 571.34 954.262 552.607 955.372C538.527 956.207 528.54 957.039 514.158 957.022C402.577 957.255 273.197 928.53 183.971 857.43C156.37 835.436 124.682 798.267 121.232 761.843C120.519 762.224 119.798 762.591 119.071 762.943C112.263 766.211 103.38 766.006 100.592 757.938C94.8349 741.273 101.815 718.459 108.047 702.648C106.693 702.199 105.224 701.718 103.977 701.026C101.253 699.544 99.2499 697.016 98.4309 694.024C95.3117 682.183 105.314 667.32 109.785 657.016C119.652 634.275 123.717 609.469 130.018 585.599C137.947 556.36 148.182 527.796 160.627 500.175C163.561 493.785 166.712 486.664 170.14 480.591C146.028 468.712 130.708 458.279 117.133 433.928C103.373 409.244 100.625 378.099 108.503 351.001C117.294 319.632 138.389 293.147 166.997 277.562C193.927 262.81 225.653 259.488 255.054 268.342C284.245 277.109 306.518 298.605 320.673 325.064C324.838 322.489 336.385 317.518 341.047 315.532C372.626 301.976 406.006 293.079 440.143 289.121C435.375 274.627 440.968 265.325 456.328 263.756C464.851 262.885 479.434 266.837 487.192 270.517C487.044 269.246 486.912 267.973 486.798 266.698C485.785 255.036 489.229 247.099 501.833 246.204Z"/><path fill="#B26F46" d="M500.285 268.014C499.104 265.64 498.169 262.842 498.971 260.219C504.936 253.508 530.024 275.731 536.565 279.949C542.249 283.603 548.242 286.753 554.476 289.361C574.808 297.788 594.918 300.158 617.178 305.863C669.012 319.146 721.159 343.501 761.446 379.294C766.936 384.171 781.285 397.268 784.666 402.119C793.672 409.904 825.23 449.888 830.19 461.255C854.504 502.887 870.066 541.876 882.575 588.499C887.89 608.307 893.049 632.596 899.59 651.796C900.833 655.405 902.279 658.942 903.921 662.389C906.307 667.37 914.714 681.437 914.637 687.267C914.58 691.539 905.151 690.561 902.531 695.123C901.716 699.906 909.812 719.923 911.565 726.288C913.856 733.332 916.723 743.618 914.405 750.876L913.45 751.829C906.869 751.229 896.124 724.896 890.137 729.092C889.589 730.92 889.711 731.237 889.914 733.082C894.366 749.859 892.887 761.493 887.358 777.917C886.119 781.091 885.551 782.438 883.864 785.395C879.542 796.531 874.589 803.291 867.411 812.674C840.828 847.417 796.236 877.247 756.496 894.757C608.921 958.186 442.432 961.591 292.387 904.248C239.377 883.574 172.039 846.3 144.356 791.484C144.292 791.328 144.228 791.171 144.163 791.014C141.344 786.826 137.611 777.343 136.125 772.644C131.8 757.05 131.686 751.314 134.056 735.796C134.072 734.073 134.315 730.445 133.691 729.05C128.372 727.559 118.389 748.127 112.364 750.979L111.34 750.699C110.188 748.448 110.795 740.716 111.454 738.272C112.234 726.842 117.231 715.378 121.007 704.667C122.268 701.089 123.57 698.111 123.611 694.215C121.146 688.611 113.001 691.311 111.59 689.957C107.58 686.11 119.619 665.8 121.213 662.3C123.376 657.45 125.318 652.504 127.033 647.477C133.535 628.382 136.944 609.359 142.086 590.346C153.487 548.186 174.799 490.016 199.66 454.387C203.136 446.737 225.805 416.672 232.245 410.816C268.096 366.77 321.375 333.585 375.158 316.153C399.222 308.354 424.253 303.524 449.315 300.226C452.205 302.928 455.052 304.501 458.465 306.395C462.929 308.164 474.174 311.933 478.17 308.761C478.165 304.157 462.107 295.372 458.234 291.281C454.932 287.794 454.839 288.175 452.05 283.655C451.372 282.605 450.568 281.199 450.888 280.006C452.715 273.191 468.046 276.843 472.074 278.158C481.689 281.296 489.394 285.808 498.562 289.73C502.853 291.55 506.643 289.671 510.893 293.489C512.118 290.953 501.813 273.764 500.285 268.014Z"/><path fill="#9D5933" d="M144.163 791.014C147.395 791.836 148.607 794.343 150.953 796.698C161.285 807.073 172.34 817.174 184.271 825.715C249.168 871.627 323.565 902.345 401.949 915.592C546.604 940.917 710.816 915.097 832.75 830.73C845.33 822.072 857.168 812.381 868.141 801.759C871.42 798.524 874.68 795.201 877.82 791.833C879.983 789.512 881.285 787.33 883.864 785.395C879.542 796.531 874.589 803.291 867.411 812.674C840.828 847.417 796.236 877.247 756.496 894.757C608.921 958.186 442.432 961.591 292.387 904.248C239.377 883.574 172.039 846.3 144.356 791.484C144.292 791.328 144.228 791.171 144.163 791.014Z"/><path fill="#E6A56B" d="M199.66 454.387L200.025 455.086C198.651 457.422 195.344 464.729 195.748 467.229C198.14 466.807 201.149 460.166 202.35 457.926C198.957 467.29 193.143 476.839 189.223 486.276C176.339 517.297 166.168 548.946 159.195 581.828C155.147 600.921 152.398 620.759 146.444 639.398C141.292 654.847 131.376 670.836 124.23 685.725C127.781 687.601 128.462 687.849 132.32 689.001C134.272 707.228 124.515 722.198 117.258 738.217C116.048 740.887 114.987 745.772 113.136 747.773C111.186 746.421 111.474 740.688 111.454 738.272C112.234 726.842 117.231 715.378 121.007 704.667C122.268 701.089 123.57 698.111 123.611 694.215C121.146 688.611 113.001 691.311 111.59 689.957C107.58 686.11 119.619 665.8 121.213 662.3C123.376 657.45 125.318 652.504 127.033 647.477C133.535 628.382 136.944 609.359 142.086 590.346C153.487 548.186 174.799 490.016 199.66 454.387Z"/><path fill="#E6A56B" d="M835.023 471.2C834.051 469.608 833.09 468.009 832.138 466.404C831.111 464.653 829.764 462.917 830.19 461.255C854.504 502.887 870.066 541.876 882.575 588.499C887.89 608.307 893.049 632.596 899.59 651.796C900.833 655.405 902.279 658.942 903.921 662.389C906.307 667.37 914.714 681.437 914.637 687.267C914.58 691.539 905.151 690.561 902.531 695.123C901.716 699.906 909.812 719.923 911.565 726.288C911.573 733.859 912.527 742.416 913.313 749.936C904.903 738.643 895.161 712.009 892.02 697.866C891.519 695.611 891.59 692.013 891.642 689.638C895.284 689.296 898.762 688.745 902.221 687.544C894.896 672.622 883.238 654.373 878.443 639.124C873.296 622.755 870.335 602.146 866.78 585.294C861.601 560.256 854.736 535.597 846.234 511.484C840.283 494.373 835.838 482.008 827.105 465.838L827.711 466.373L827.313 466.347C827.356 466.227 827.398 466.106 827.44 465.986C829.586 468.553 831.124 472.279 832.576 475.367C833.449 474.05 834.24 472.58 835.023 471.2Z"/><path fill="#E6A56B" d="M500.285 268.014C499.104 265.64 498.169 262.842 498.971 260.219C504.936 253.508 530.024 275.731 536.565 279.949C542.249 283.603 548.242 286.753 554.476 289.361C574.808 297.788 594.918 300.158 617.178 305.863C669.012 319.146 721.159 343.501 761.446 379.294C766.936 384.171 781.285 397.268 784.666 402.119L784.552 402.84C782.612 402.825 770.408 384.364 766.507 390.941C767.426 392.3 779.605 402.147 782.153 404.794C777.034 401.158 772.916 397.394 768.072 393.453C760.94 387.689 753.654 382.119 746.221 376.749C710.837 351.715 670.492 334.871 629.569 321.167C596.193 309.99 558.869 308.543 529.654 288.063C524.673 284.571 519.613 280.241 514.608 276.841C510.05 273.744 504.794 271.427 500.285 268.014Z"/><path fill="#E6A56B" d="M232.245 410.816C268.096 366.77 321.375 333.585 375.158 316.153C399.222 308.354 424.253 303.524 449.315 300.226C452.205 302.928 455.052 304.501 458.465 306.395C457.947 307.014 457.567 307.472 456.716 307.632C443.178 310.178 429.519 312.894 416.19 316.432C403.481 319.922 390.937 323.986 378.596 328.611C329.307 347.144 283.78 370.399 244.458 405.159C241.935 407.389 238.443 410.995 235.784 412.688L235.462 412.151C241.96 405.908 248.789 400.019 255.919 394.509C256.579 394.007 256.793 393.773 257.332 393.149C255.283 390.543 254.039 393.592 254.159 389.368C253.262 390.156 252.6 390.832 251.911 391.806C250.621 393.627 233.331 410.826 232.693 411.05L232.245 410.816Z"/><path fill="#E6A56B" d="M452.05 283.655C451.372 282.605 450.568 281.199 450.888 280.006C452.715 273.191 468.046 276.843 472.074 278.158C481.689 281.296 489.394 285.808 498.562 289.73C502.853 291.55 506.643 289.671 510.893 293.489C510.883 294.625 512.521 295.736 512.008 297.895C504.954 301.558 469 288.324 459.845 286.147C456.752 285.412 454.472 283.407 452.05 283.655Z"/><path fill="#E6A56B" d="M887.358 777.917L885.716 777.929C884.177 776.747 884.01 770.829 884.428 769.191C885.757 763.985 883.912 734.55 885.763 732.077C887.49 731.863 888.304 732.403 889.914 733.082C894.366 749.859 892.887 761.493 887.358 777.917Z"/><path fill="#E6A56B" d="M134.056 735.796C135.521 734.782 135.77 734.456 137.573 734.374L138.478 734.955C139.036 737.821 139.538 769.402 138.956 770.953C137.767 772.073 137.738 772.292 136.125 772.644C131.8 757.05 131.686 751.314 134.056 735.796Z"/><path fill="#E6A56B" d="M497.911 608.575C568.629 604.015 629.645 657.668 634.169 728.388C638.692 799.109 585.009 860.097 514.286 864.585C443.614 869.07 382.678 815.433 378.158 744.763C373.638 674.093 427.243 613.131 497.911 608.575Z"/><path fill="#351914" d="M489.78 639.213C508.825 638.193 557.842 635.953 564.068 660.757C570.352 685.794 533.916 714.867 512.722 720.414C512.304 732.631 510.173 748.639 517.925 758.38C531.099 774.934 551.661 774.414 566.241 760.145C570.57 755.908 573.663 755.932 579.176 756.612C578.94 760.699 578.279 764.99 575.559 768.177C559.668 786.79 533.567 787.221 515.099 773.396C511.116 770.194 509.31 767.907 506.377 763.775C501.665 768.316 498.271 773.233 492.45 776.57C476.658 785.623 458.919 785.009 443.991 774.519C439.457 771.334 429.631 762.481 434.354 756.642C441.01 753.117 447.824 763.068 453.716 766.357C459.592 769.636 464.275 771.304 471.265 770.89C479.775 770.386 487.423 765.771 493.091 759.704C501.332 750.883 499.986 732.295 499.089 720.526C452.619 703.541 415.733 643.987 489.78 639.213Z"/><path fill="#E6A56B" d="M501.036 648.209C513.651 647.103 529.844 648.565 541.2 654.173C541.338 655.15 541.969 658.085 541.42 658.508C536.998 661.914 518.759 660.946 513.055 660.943C506.419 661.004 475.798 663.035 471.951 658.188C471.117 657.137 471.282 656.607 471.577 655.452C476.572 649.961 493.738 648.784 501.036 648.209Z"/><path fill="#351914" d="M625.127 576.894C624.789 575.49 624.772 574.855 625.744 573.545C643.002 550.296 678.267 547.422 701.474 563.085C715.883 572.81 725.195 589.611 728.113 606.461C734.149 641.311 715.616 675.289 679.086 680.779C666.486 682.672 651.623 679.264 640.979 672.09C639.881 671.313 638.33 670 637.872 668.693L638.128 668.266C638.555 668.733 629.741 661.738 629.049 661.163C617.259 651.364 610.484 633.793 610.024 618.572C609.496 601.117 613.697 589.62 625.127 576.894Z"/><path fill="#FEFEFE" d="M625.127 576.894C624.789 575.49 624.772 574.855 625.744 573.545C643.002 550.296 678.267 547.422 701.474 563.085C715.883 572.81 725.195 589.611 728.113 606.461C734.149 641.311 715.616 675.289 679.086 680.779C666.486 682.672 651.623 679.264 640.979 672.09C639.881 671.313 638.33 670 637.872 668.693L638.128 668.266C644.626 671.09 650.821 673.615 657.823 674.221C707.107 678.485 726.68 613.899 698.161 580.193C689.336 570.038 677.932 563.259 664.346 562.385C647.21 561.282 637.632 566.357 625.127 576.894Z"/><path fill="#FEFEFE" d="M642.11 585.428C649.508 584.06 656.601 588.991 657.896 596.402C659.192 603.812 654.192 610.857 646.769 612.08C639.448 613.286 632.521 608.37 631.244 601.061C629.966 593.752 634.814 586.778 642.11 585.428Z"/><path fill="#351914" d="M375.769 666.736C373.294 674.597 356.127 679.212 348.725 680.272C333.429 682.59 317.85 678.576 305.579 669.155C285.454 653.978 278.917 627.555 284.449 603.567C290.792 576.058 309.228 557.071 337.808 553.535C352.168 551.843 366.608 555.966 377.911 564.984C381.431 567.783 386.743 572.812 387.248 577.402C408.657 603.051 405.704 642.097 379.618 663.815C378.353 664.868 376.958 665.633 375.769 666.736Z"/><path fill="#FEFEFE" d="M375.769 666.736C373.294 674.597 356.127 679.212 348.725 680.272C333.429 682.59 317.85 678.576 305.579 669.155C285.454 653.978 278.917 627.555 284.449 603.567C290.792 576.058 309.228 557.071 337.808 553.535C352.168 551.843 366.608 555.966 377.911 564.984C381.431 567.783 386.743 572.812 387.248 577.402C382.593 573.444 377.812 569.141 372.167 566.693C339.708 552.613 307.236 573.874 301.364 607.651C295.514 641.301 317.335 676.652 353.957 674.086C361.675 673.502 368.722 669.942 375.769 666.736Z"/><path fill="#FEFEFE" d="M363.609 585.398C370.922 583.514 378.37 587.947 380.202 595.273C382.033 602.6 377.547 610.016 370.207 611.794C362.942 613.555 355.618 609.124 353.805 601.872C351.992 594.619 356.37 587.263 363.609 585.398Z"/><path fill="#351914" d="M351.269 465.182C362.578 464.491 384.38 467.709 375.957 483.802C373.218 489.035 350.551 489.826 344.385 490.575C337.015 491.678 331.623 493.287 324.03 493.422C305.81 479.33 339.829 466.26 351.269 465.182Z"/><path fill="#351914" d="M653.6 465.216C655.739 465.174 657.878 465.219 660.012 465.354C670.307 465.988 681.519 471.009 688.607 478.699C690.533 480.868 692.69 484.974 692.093 487.985C690.526 495.894 679.063 492.806 674.047 491.859C662.682 489.542 646.451 490.464 636.594 484.866C631.396 481.914 633.346 475.068 636.807 471.254C641.721 465.838 646.726 465.697 653.6 465.216Z"/><path fill="#B26F46" d="M117.048 387.56C115.993 360.546 125.025 334.105 142.387 313.382C175.65 273.555 239.913 262.032 281.505 296.465C291.267 304.547 304.95 318.415 308.656 331.027C308.865 331.738 308.012 332.115 307.468 332.565C299.399 336.415 282.243 348.134 274.844 353.528C262.851 336.774 250.574 328.172 229.922 325.052C196.48 320 163.924 344.194 160.167 378.074C157.735 400.008 166.011 421.456 183.427 435.221C187.01 437.978 189.246 439.351 193.283 441.266C187.38 449.816 181.23 460.409 175.89 469.419C171.117 466.817 165.281 464.655 160.664 461.862C145.72 452.823 133.106 438.97 126.117 423.008C126.042 422.655 122.75 414.079 122.338 412.933C118.954 403.502 117.801 397.387 117.048 387.56Z"/><defs><linearGradient id="gradient_0" gradientUnits="userSpaceOnUse" x1="200.30646" y1="404.32071" x2="228.00905" y2="275.59662"><stop offset="0" stop-color="#B57346"/><stop offset="1" stop-color="#E5A46C"/></linearGradient></defs><path fill="url(#gradient_0)" d="M117.048 387.56C115.993 360.546 125.025 334.105 142.387 313.382C175.65 273.555 239.913 262.032 281.505 296.465C291.267 304.547 304.95 318.415 308.656 331.027C308.865 331.738 308.012 332.115 307.468 332.565C302.226 331.348 291.014 318.262 286.191 313.953C237.304 270.277 161.885 289.069 132.824 345.691C131.481 348.311 130.13 348.508 129.514 351.945L129.975 352.013C130.816 350.586 131.135 350.051 131.72 348.475C133.352 344.079 137.058 342.172 138.759 337.848C140.218 334.137 143.933 329.596 146.468 326.546C157.967 312.708 174.042 302.474 190.79 296.029C192.182 295.486 193.591 294.988 195.016 294.538C197.565 297.029 199.402 297.874 198.655 301.741C198.111 304.56 201.015 315.228 202.761 317.298C205.147 320.125 208.45 318.31 209.756 323.717C208.271 326.008 202.323 325.856 198.579 327.774C198.14 327.094 197.609 326.269 196.985 325.3C196.41 321.074 198.149 316.05 192.77 314.435C191.572 314.075 189.409 314.201 188.007 314.301C183.523 310.475 183.127 309.551 176.911 311.165C176.169 311.357 171.296 308.189 169.884 308.801C159.04 319.162 149.078 332.079 138.499 343.113C137.934 343.702 137.68 344.396 137.512 344.897C138.218 345.621 138.914 346.356 139.598 347.101C138.581 356.368 136.674 357.326 133.211 365.168C131.306 369.48 131.588 373.778 128.777 379.084C124.488 381.592 120.613 384.035 117.048 387.56Z"/><path fill="#9D5933" d="M126.117 423.008C129.513 423.167 137.523 430.035 141.534 432.337C151.91 438.295 173.349 444.792 183.427 435.221C187.01 437.978 189.246 439.351 193.283 441.266C187.38 449.816 181.23 460.409 175.89 469.419C171.117 466.817 165.281 464.655 160.664 461.862C145.72 452.823 133.106 438.97 126.117 423.008Z"/><path fill="#B26F46" d="M717.417 333.064L716.312 332.271C716.166 329.144 722.779 319.414 724.856 316.6C761.994 266.278 830.099 263.934 874.751 304.985C893.011 321.987 904.69 344.885 907.733 369.649C911.338 385.987 907.041 410.049 898.356 424.378C890.483 443.122 868.509 463.859 848.811 469.463C843.426 460.416 837.977 450.971 832.227 442.188C835.18 440.591 837.805 439.217 840.594 437.338C851.422 428.52 857.209 421.989 862.363 408.466C880.3 361.39 835.981 313.015 787.612 326.359C768.299 331.687 761.56 338.626 749.922 354.139C742.24 348.415 725.57 337.162 717.417 333.064Z"/><path fill="#E6A56B" d="M717.417 333.064L716.312 332.271C716.166 329.144 722.779 319.414 724.856 316.6C761.994 266.278 830.099 263.934 874.751 304.985C893.011 321.987 904.69 344.885 907.733 369.649C907.537 370.125 907.362 370.424 907.119 370.876C905.852 365.03 905.545 357.006 902.613 350.928L902.375 351.079C902.498 354.189 899.786 356.891 900.062 358.03C901.072 362.187 903.232 367.697 904.361 372.086L903.983 372.1C902.914 370 902.7 368.196 902.024 366.024C880.028 295.367 795.332 264.228 737.396 314.909C732.493 319.198 722.445 331.527 717.417 333.064Z"/><path fill="#9D5933" d="M840.594 437.338C841.679 438.065 843.192 438.435 844.464 438.713C860.033 442.115 875.952 439.278 889.469 430.86C893.076 428.613 894.265 427.242 897.517 424.837C897.797 424.684 898.077 424.531 898.356 424.378C890.483 443.122 868.509 463.859 848.811 469.463C843.426 460.416 837.977 450.971 832.227 442.188C835.18 440.591 837.805 439.217 840.594 437.338Z"/><path fill="#E6A56B" d="M798.763 333.69C802.058 333.134 808.118 333.375 811.492 333.911C841.05 338.604 861.513 366.516 856.329 396.186C853.227 413.936 842.08 424.928 828.097 435.062C826.538 432.79 824.273 430.012 822.548 427.793C803.468 402.757 781.961 379.001 757.123 359.5C767.266 344.3 780.649 335.694 798.763 333.69Z"/><path fill="#E6A56B" d="M216.069 333.66C237.697 330.856 255.767 341.792 267.614 359.15C263.377 362.216 258.373 366.845 254.42 370.386C237.484 385.569 221.988 402.286 208.129 420.321C204.691 424.663 200.961 429.968 197.63 434.478C197.234 434.211 196.838 433.945 196.442 433.678C153.262 405.314 161.996 342.503 216.069 333.66Z"/></svg>