<?xml version="1.0" encoding="utf-8" ?><svg xmlns="http://www.w3.org/2000/svg" xmlns:xlink="http://www.w3.org/1999/xlink" width="1024" height="1024" viewBox="0 0 1024 1024"><path fill="#331714" d="M505.906 102.536C519.9 102.047 527.46 116.209 539.403 119.546C566.746 127.189 589.687 129.842 615.195 144.042C621.23 131.592 630.138 122.385 642.817 116.619C657.338 110.096 673.839 109.529 688.775 115.039C704.518 120.928 717.246 132.879 724.115 148.221C737.849 179.274 727.038 212.991 695.319 226.913L695.899 228.041C710.33 256.245 716.077 283.419 724.097 313.74C726.352 322.263 734.659 333.554 732.964 342.74C732.65 344.438 729.288 345.743 727.878 346.342C728.798 348.473 729.62 350.645 730.338 352.852C732.771 360.189 737.539 386.424 721.644 377.448C716.55 403.746 698.961 420.045 678.34 435.15C688.831 451.145 686.692 463.345 681.186 480.996C704.76 501.698 727.48 531.525 744.066 558.366C755.686 577.172 771.749 606.747 775.139 628.91C775.936 634.121 774.945 640.204 773.763 645.281C779.222 655.435 785.565 665.954 777.947 676.671C782.213 695.939 782.847 727.057 764.5 739.843C758.838 743.819 751.775 745.256 745.01 743.809C734.947 741.652 729.835 735.168 724.572 727.218C712.35 733.584 707.986 725.762 704.726 715.178L702.601 718.785C705.581 734.237 705.963 745.893 690.657 754.317C682.773 790.079 661.655 834.23 644.592 866.776C649.121 870.084 653.728 873.508 656.952 878.175C659.083 881.261 660.835 885.151 659.963 888.972C659.267 892.025 657.05 894.222 654.378 895.691C639.25 904.011 585.812 901.15 568.63 896.086C564.903 894.987 560.229 893.275 557.827 890.097C552.073 882.484 550.608 838.354 542.402 823.394C542.303 823.214 542.2 823.036 542.098 822.857C534.06 823.383 526.011 823.732 517.958 823.903C507.23 824.041 496.503 823.604 485.822 822.593C479.272 836.435 478.018 855.001 475.116 869.953C472.203 884.958 474.215 892.981 456.498 896.949C435.234 901.975 414.325 901.369 392.819 899.785C363.263 897.607 358.888 883.958 383.67 866.873C368.389 842.268 343.135 782.301 337.744 754.594C322.785 746.17 321.698 734.299 325.435 718.798L323.501 715.3C319.866 725.737 315.508 733.516 303.396 727.264C300.432 731.962 296.526 737.224 291.809 740.15C278.964 748.116 262.866 744.188 255.175 731.175C245.785 715.286 246.011 693.979 249.921 676.671C242.742 666.02 248.526 655.193 254.209 645.456C249.953 628.637 255.381 613.425 262.528 598.181C282.386 555.826 311.562 512.187 346.512 480.895C341.357 463.564 338.801 450.803 349.563 435.367L343.596 430.891C325.789 417.376 310.236 400.277 307.106 377.405C295.792 383.478 294.666 371.989 295.566 363.626C296.22 357.542 297.948 352.72 300.244 347.08C298.806 346.03 295.71 343.803 295.428 342.021C294.262 332.151 302.442 321.611 304.805 312.298C312.585 281.641 319.627 255.336 333.254 226.765C320.694 221.189 312.905 215.287 305.927 203.01C298.236 189.479 296.908 171.81 301.21 156.928C305.853 140.595 316.86 126.811 331.761 118.668C362.558 101.94 396.835 113.33 413.243 143.908C432.985 133.097 453.46 127.456 475.667 124.778C475.053 122.116 474.502 119.815 475.501 117.221C476.216 115.314 477.685 113.785 479.563 112.996C485.944 110.248 494.79 113.368 500.834 115.733C500.359 109.488 499.865 105.914 505.906 102.536Z"/><path fill="#B16F46" d="M507.353 114.29C507.125 112.462 506.746 111.333 507.622 109.758C511.316 107.433 520.747 116.554 524.295 119.012C528.653 122.045 533.37 124.528 538.338 126.405C550.18 130.904 561.937 131.825 574.03 135.182C606.811 144.283 641.256 164.246 662.793 190.864C665.058 193.265 670.7 199.775 672.205 202.626C697.814 236.746 707.176 274.651 717.059 315.054C718.255 319.945 727.146 336.726 726.11 339.573C723.418 339.93 721.779 339.661 719.614 340.895C718.518 343.801 729.403 362.621 725.914 371.71L725.211 371.858C724.787 371.347 724.076 370.549 723.733 370.026C720.99 366.942 718.34 360.936 715.235 359.648C713.692 360.095 714.42 359.715 713.293 361.436C715.838 369.407 715.808 376.266 712.819 384.167C711.969 386.342 711.469 387.565 710.352 389.605C697.487 418.958 660.171 440.144 631.079 451.399C553.267 481.503 462.079 479.812 385.46 446.754C363.418 437.243 328.769 415.645 319.639 393.092C318.197 391.522 316.506 387.059 315.778 384.997C312.858 376.313 312.66 369.212 314.761 360.4L313.63 359.24C308.75 359.812 306.892 370.416 302.757 371.899L302.13 371.14C300.668 360.839 306.296 352.447 308.825 342.939C309.22 341.454 308.395 340.829 307.548 339.754C305.359 339.715 304.657 339.687 302.522 339.3L302.054 338.561C302.57 335.51 305.566 329.539 306.929 326.341C309.089 321.353 311.011 316.265 312.69 311.095C315.783 301.254 317.811 290.797 320.473 280.766C341.721 200.686 394.924 140.156 480.913 131.235C482.003 132.164 483.689 133.152 484.926 133.932C488.371 134.576 490.818 137.453 495.649 136.12L496.053 135.266C494.393 130.967 485.619 128.318 482.035 122.207C481.477 120.614 481.507 121.394 481.899 119.785C488.922 114.24 506.227 127.304 513.47 127.504C513.56 123.192 508.977 120.612 507.353 114.29Z"/><path fill="#9B5834" d="M710.352 389.605C697.487 418.958 660.171 440.144 631.079 451.399C553.267 481.503 462.079 479.812 385.46 446.754C363.418 437.243 328.769 415.645 319.639 393.092C321.52 393.718 328.782 401.398 331.018 403.225C372.366 437.006 426.691 454.873 479.387 460.304C541.88 466.746 609.336 455.351 664.517 424.626C676.826 417.772 688.246 410.878 698.521 401.099C702.343 397.491 706.308 392.769 710.352 389.605Z"/><path fill="#E6A56B" d="M480.913 131.235C482.003 132.164 483.689 133.152 484.926 133.932C483.502 135.43 459.815 140.387 454.856 142.138C447.1 144.876 438.248 147.706 430.597 151.33C407.094 161.239 377.952 179.242 361.415 198.724C346.348 216.475 337.448 245.537 331.021 267.424C327.293 281.551 325.157 296.1 321.506 310.362C318.802 320.924 312.047 328.768 309.172 337.821C308.454 339.388 308.972 338.763 307.548 339.754C305.359 339.715 304.657 339.687 302.522 339.3L302.054 338.561C302.57 335.51 305.566 329.539 306.929 326.341C309.089 321.353 311.011 316.265 312.69 311.095C315.783 301.254 317.811 290.797 320.473 280.766C341.721 200.686 394.924 140.156 480.913 131.235Z"/><path fill="#E6A56B" d="M507.353 114.29C507.125 112.462 506.746 111.333 507.622 109.758C511.316 107.433 520.747 116.554 524.295 119.012C528.653 122.045 533.37 124.528 538.338 126.405C550.18 130.904 561.937 131.825 574.03 135.182C606.811 144.283 641.256 164.246 662.793 190.864L662.126 191.135C660.729 190.876 640.801 174.13 637.458 171.71C630.301 166.573 622.803 161.93 615.016 157.811C600.357 149.944 583.467 143.083 567.285 139.25C556.331 136.656 546.831 135.533 535.985 131.566C523.851 127.129 518.775 119.437 507.353 114.29Z"/><path fill="#E6A56B" d="M672.205 202.626C697.814 236.746 707.176 274.651 717.059 315.054C718.255 319.945 727.146 336.726 726.11 339.573C723.979 339.361 721.983 339.084 719.868 338.786C716.821 330.652 710.657 323.122 707.833 313.047C704.004 299.383 702.177 286.439 699.072 272.585C695.291 255.719 688.556 238.488 681.858 222.521C679.992 218.074 675.196 211.065 673.011 206.48C671.926 204.206 671.619 204.595 672.205 202.626Z"/><path fill="#E6A56B" d="M719.868 338.786C721.983 339.084 723.979 339.361 726.11 339.573C723.418 339.93 721.779 339.661 719.614 340.895C718.518 343.801 729.403 362.621 725.914 371.71L725.211 371.858C724.787 371.347 724.076 370.549 723.733 370.026C723.111 363.574 711.917 343.298 714.642 339.258C716.527 338.274 717.603 339.146 719.868 338.786Z"/><path fill="#E6A56B" d="M482.035 122.207C481.477 120.614 481.507 121.394 481.899 119.785C488.922 114.24 506.227 127.304 513.47 127.504C513.463 129.387 513.489 130.109 511.893 131.009C506.142 131.06 498.828 126.853 493.051 125.309C489.392 124.332 485.582 123.438 482.035 122.207Z"/><path fill="#E6A56B" d="M309.172 337.821C311.302 338.094 311.678 338.02 313.443 339.108C315.788 342.723 305.323 369.06 302.13 371.14C300.668 360.839 306.296 352.447 308.825 342.939C309.22 341.454 308.395 340.829 307.548 339.754C308.972 338.763 308.454 339.388 309.172 337.821Z"/><path fill="#E6A56B" d="M712.819 384.167C711.137 381.153 709.804 364.675 711.039 361.464C712.41 360.878 711.686 361.005 713.293 361.436C715.838 369.407 715.808 376.266 712.819 384.167Z"/><path fill="#E6A56B" d="M314.761 360.4L315.236 364.114L316.308 362.369C317.501 364.403 317.105 382.819 315.778 384.997C312.858 376.313 312.66 369.212 314.761 360.4Z"/><path fill="#E6A56B" d="M505.651 296.109C542.98 293.336 575.468 321.399 578.152 358.735C580.836 396.071 552.696 428.492 515.353 431.086C478.137 433.672 445.849 405.648 443.175 368.438C440.5 331.228 468.447 298.873 505.651 296.109Z"/><path fill="#331714" d="M505.139 311.716C519.492 310.711 550.53 312.647 539.427 335.186C534.58 345.028 524.101 352.011 513.988 355.423L514.009 371.415C527.921 395.544 545.556 369.458 549.116 373.753C549.646 376.878 548.876 379.818 546.395 381.901C535.965 390.656 523.96 390.42 513.658 382.34L510.4 378.722C507.171 382.396 504.8 384.543 499.943 386.716C491.151 390.65 476.587 387.413 472.39 378.093C471.725 376.617 471.55 374.49 472.294 372.954C476.283 371.356 483.714 382.743 491.661 381.624C508.586 379.242 507.122 368.588 507.005 355.425C501.259 353.533 495.932 350.55 491.314 346.642C484.327 340.765 474.433 328.244 482.258 319.255C487.376 313.376 497.766 312.324 505.139 311.716Z"/><path fill="#E6A56B" d="M505.262 317.204C510.527 316.821 527.505 316.433 529.861 322.12C527.349 324.861 520.932 323.785 517.625 323.475C512.355 323.228 494.468 325.213 491.771 322.271L491.931 321.463C495.738 317.788 500.242 317.695 505.262 317.204Z"/><path fill="#331714" d="M572.813 277.798C574.012 274.22 578.798 270.839 582.143 269.198C599.205 260.83 615.931 268.754 623.537 285.311C630.998 301.549 627.299 323.533 609.728 331.435C602.017 334.825 593.269 334.988 585.437 331.887C583.334 331.06 579.753 329.394 578.786 327.306C577.294 325.834 575.081 324.518 573.758 323.074C564.729 313.213 562.575 297.786 567.669 285.551C568.484 283.595 571.299 280.424 572.474 278.393L572.813 277.798Z"/><path fill="white" d="M572.813 277.798C574.012 274.22 578.798 270.839 582.143 269.198C599.205 260.83 615.931 268.754 623.537 285.311C630.998 301.549 627.299 323.533 609.728 331.435C602.017 334.825 593.269 334.988 585.437 331.887C583.334 331.06 579.753 329.394 578.786 327.306C588.456 331.995 597.955 332.839 606.85 325.773C634.811 303.562 606.294 251.357 572.813 277.798Z"/><path fill="white" d="M581.067 283.452C584.784 282.222 588.799 284.212 590.07 287.916C591.342 291.619 589.395 295.656 585.706 296.967C583.284 297.829 580.585 297.322 578.64 295.64C576.694 293.959 575.803 291.361 576.305 288.84C576.807 286.318 578.626 284.26 581.067 283.452Z"/><path fill="#331714" d="M440.801 327.663C439.631 330.519 432.811 332.875 429.728 333.393C412.215 336.337 396.668 325.982 393.774 308.07C392.142 297.795 394.661 287.292 400.776 278.875C411.37 264.341 429.18 261.619 443.51 272.429C445.466 273.904 447.99 276.362 448.304 278.885C452.251 284.231 454.77 289.324 455.442 296.043C456.556 307.183 452.153 320.202 442.43 326.441C442.123 326.638 441.018 327.381 440.801 327.663Z"/><path fill="white" d="M440.801 327.663C439.631 330.519 432.811 332.875 429.728 333.393C412.215 336.337 396.668 325.982 393.774 308.07C392.142 297.795 394.661 287.292 400.776 278.875C411.37 264.341 429.18 261.619 443.51 272.429C445.466 273.904 447.99 276.362 448.304 278.885C436.808 267.949 421.803 267.624 410.587 279.431C399.127 291.495 399.774 313.787 412.477 324.733C420.295 331.674 431.75 332.735 440.801 327.663Z"/><path fill="white" d="M434.79 283.39C438.572 281.955 442.802 283.851 444.247 287.628C445.693 291.406 443.808 295.641 440.034 297.096C436.246 298.557 431.992 296.663 430.541 292.872C429.091 289.08 430.995 284.831 434.79 283.39Z"/><path fill="#331714" d="M428.05 219.605C432.22 219.289 437.983 219.035 441.009 222.138C452.14 233.555 431.353 232.483 426.787 232.515C422.753 233.135 418.042 235.065 414.318 234.382C408.312 230.693 414.332 225.393 418.059 223.334C421.665 221.342 424.046 220.458 428.05 219.605Z"/><path fill="#331714" d="M583.406 219.633C606.194 217.331 615.003 236.299 602.491 234.726C594.576 232.082 590.081 233.589 582.944 232.115C573.753 230.217 576.029 223.001 583.406 219.633Z"/><path fill="#A1A47A" d="M349.345 486.463L350.206 485.778C354.001 487.643 358.685 491.821 362.808 494.181C438.125 537.277 535.497 542.991 617.197 515.913C635.919 509.709 662.643 498.291 677.255 485.683L680.27 488.546C689.111 497.204 697.471 506.339 705.313 515.911C703.863 517.587 702.748 518.879 701.143 520.425L700.724 520.989C689.415 532.179 684.753 534.379 673.448 543.527L673.176 543.766L671.163 544.14C669.364 540.686 667.691 537.168 666.147 533.593L664.709 532.16L663.688 532.273C662.235 534.862 666.402 545.279 667.369 548.023C672.072 560.206 676.621 572.446 681.015 584.743C682.16 587.975 685.59 597.234 686.223 600.237C691.836 616.35 695.744 633.123 699.577 649.701C701.467 660.071 706.155 690.843 703.103 699.922L703.043 700.577C701.933 705.443 699.121 715.12 694.417 717.293C672.928 727.223 646.153 734.7 622.968 738.867C546.056 752.692 465.594 752.502 389.306 735.044C370.408 730.7 350.087 725.134 332.72 716.456C329.147 714.688 326.314 706.305 325.138 702.479L324.466 698.106C322.752 684.33 325.501 663.486 328.386 649.69C332.226 632.055 335.947 617.303 341.779 600.102C342.643 596.27 345.668 588.564 347.038 584.644C351.316 572.403 356.138 560.297 360.63 548.106C362.044 544.398 365.49 535.812 364.835 532.012L364.167 531.559C362.681 532.287 362.479 533.022 361.672 534.48L356.842 544.548L354.112 543.3L353.336 542.529C342.742 535.482 336.003 529.98 326.775 521.26L326.386 520.921C324.238 518.971 323.895 518.499 322.288 516.067C331.072 505.661 339.516 495.901 349.345 486.463Z"/><path fill="#A1A47A" d="M349.345 486.463L350.206 485.778C354.001 487.643 358.685 491.821 362.808 494.181C438.125 537.277 535.497 542.991 617.197 515.913C635.919 509.709 662.643 498.291 677.255 485.683L680.27 488.546C689.111 497.204 697.471 506.339 705.313 515.911C703.863 517.587 702.748 518.879 701.143 520.425L700.724 520.989C689.415 532.179 684.753 534.379 673.448 543.527L673.176 543.766L671.163 544.14C669.364 540.686 667.691 537.168 666.147 533.593L664.709 532.16L663.688 532.273C662.235 534.862 666.402 545.279 667.369 548.023C672.072 560.206 676.621 572.446 681.015 584.743C682.16 587.975 685.59 597.234 686.223 600.237C674.197 604.701 654.823 609.483 642.358 612.256C551.826 632.399 429.716 630.66 341.779 600.102C342.643 596.27 345.668 588.564 347.038 584.644C351.316 572.403 356.138 560.297 360.63 548.106C362.044 544.398 365.49 535.812 364.835 532.012L364.167 531.559C362.681 532.287 362.479 533.022 361.672 534.48L356.842 544.548L354.112 543.3L353.336 542.529C342.742 535.482 336.003 529.98 326.775 521.26L326.386 520.921C324.238 518.971 323.895 518.499 322.288 516.067C331.072 505.661 339.516 495.901 349.345 486.463Z"/><path fill="#F8E6C1" d="M349.345 486.463L350.206 485.778C354.001 487.643 358.685 491.821 362.808 494.181C438.125 537.277 535.497 542.991 617.197 515.913C635.919 509.709 662.643 498.291 677.255 485.683L680.27 488.546C689.111 497.204 697.471 506.339 705.313 515.911C703.863 517.587 702.748 518.879 701.143 520.425L700.724 520.989C689.415 532.179 684.753 534.379 673.448 543.527L673.176 543.766L671.163 544.14C669.364 540.686 667.691 537.168 666.147 533.593L664.709 532.16L663.688 532.273C662.235 534.862 666.402 545.279 667.369 548.023C664.348 551.267 614.215 560.848 607.147 561.973C534.668 573.396 460.701 571.31 388.98 555.822C384.552 554.833 363.573 550.244 360.63 548.106C362.044 544.398 365.49 535.812 364.835 532.012L364.167 531.559C362.681 532.287 362.479 533.022 361.672 534.48L356.842 544.548L354.112 543.3L353.336 542.529C342.742 535.482 336.003 529.98 326.775 521.26L326.386 520.921C324.238 518.971 323.895 518.499 322.288 516.067C331.072 505.661 339.516 495.901 349.345 486.463Z"/><path fill="#E3C29E" d="M349.345 486.463L350.206 485.778C354.001 487.643 358.685 491.821 362.808 494.181C438.125 537.277 535.497 542.991 617.197 515.913C635.919 509.709 662.643 498.291 677.255 485.683L680.27 488.546C679.356 489.914 678.34 491.577 677.214 492.722C670.812 498.854 662.128 503.922 654.365 508.246C593.515 542.142 518.917 548.99 451.244 535.981C417.341 529.464 377.477 515.299 350.802 493.005C350.073 490.556 350.325 489.071 349.345 486.463Z"/><path fill="white" d="M349.345 486.463C350.325 489.071 350.073 490.556 350.802 493.005C347.818 496.696 329.067 518.862 326.386 520.921C324.238 518.971 323.895 518.499 322.288 516.067C331.072 505.661 339.516 495.901 349.345 486.463Z"/><path fill="white" d="M680.27 488.546C689.111 497.204 697.471 506.339 705.313 515.911C703.863 517.587 702.748 518.879 701.143 520.425C695.623 517.189 683.734 500.417 678.221 495.595C677.674 495.116 677.348 493.445 677.214 492.722C678.34 491.577 679.356 489.914 680.27 488.546Z"/><path fill="#E3C29E" d="M353.336 542.529C356.282 538.866 356.243 535.395 361.672 534.48L356.842 544.548L354.112 543.3L353.336 542.529Z"/><path fill="#E3C29E" d="M666.147 533.593C670.22 534.943 671.9 539.816 673.448 543.527L673.176 543.766L671.163 544.14C669.364 540.686 667.691 537.168 666.147 533.593Z"/><path fill="#F8E6C1" d="M341.779 600.102C429.716 630.66 551.826 632.399 642.358 612.256C654.823 609.483 674.197 604.701 686.223 600.237C691.836 616.35 695.744 633.123 699.577 649.701C684.92 655.474 661.338 661.259 645.757 664.58C542.065 686.682 429.081 683.144 328.386 649.69C332.226 632.055 335.947 617.303 341.779 600.102Z"/><path fill="#E3C29E" d="M703.043 700.577C701.933 705.443 699.121 715.12 694.417 717.293C672.928 727.223 646.153 734.7 622.968 738.867C546.056 752.692 465.594 752.502 389.306 735.044C370.408 730.7 350.087 725.134 332.72 716.456C329.147 714.688 326.314 706.305 325.138 702.479C328.981 703.876 334.094 706.469 338.434 708.106C353.174 713.667 368.269 718.24 383.618 721.795C471.899 741.584 563.586 740.441 651.347 718.457C664.368 715.164 692.049 707.508 703.043 700.577Z"/><path fill="#F8E6C1" d="M324.466 698.106C335.05 701.659 342.561 705.115 354.143 708.474C444.286 734.194 539.302 737.802 631.136 718.991C648.008 715.806 664.672 711.604 681.036 706.405C683.624 705.556 702.094 698.832 702.614 698.849L703.103 699.922L703.043 700.577C692.049 707.508 664.368 715.164 651.347 718.457C563.586 740.441 471.899 741.584 383.618 721.795C368.269 718.24 353.174 713.667 338.434 708.106C334.094 706.469 328.981 703.876 325.138 702.479L324.466 698.106Z"/><path fill="#B16F46" d="M345.472 757.585C431.231 789.689 555.954 791.378 644.554 769.47C657.355 766.305 670.808 762.568 683.038 757.606L679.835 767.992C669.733 801.043 654.499 832.817 638.672 863.414C637.708 865.278 637.381 867.511 637.843 869.55C641.792 875.546 648.907 875.813 652.913 885.477C653.823 891.571 645.995 891.507 641.324 892.311C639.8 886.663 635.998 877.092 629.007 876.827L627.961 877.257C628.386 881.45 634.644 883.895 635.853 892.816C629.188 893.47 622.5 893.868 615.805 894.01C615.045 889.042 611.318 879.521 605.36 879.697C604.934 882.54 609.505 888.888 610.876 893.922C599.966 893.694 589.252 893.111 578.481 891.2C565.62 888.904 563.17 889.109 560.947 875.988C557.828 857.582 555.404 839.414 549.48 821.657C554.542 821.039 561.081 819.825 566.043 818.585C571.259 817.281 588.115 813.778 589.643 808.797C546.257 817.028 511.534 820.088 467.24 813.902C456.879 812.456 448.026 810.564 437.897 808.818C441.4 816.037 470.607 820.387 478.975 821.727C470.791 842.541 470.796 863.296 465.003 884.462C463.923 888.407 453.216 890.555 449.645 891.248C437.555 893.038 429.757 893.404 417.611 893.815C418.763 890.013 423.757 882.083 423.55 880.107L422.62 879.764C416.072 881.162 413.452 887.897 412.32 893.866C405.583 893.862 398.851 893.515 392.15 892.827C392.788 890.618 393.182 889.333 394.266 887.312C395.789 884.473 400.561 879.711 400.564 876.593L399.843 876.164C391.56 878.04 388.906 884.726 386.836 892.032C385.134 891.761 383.435 891.471 381.74 891.162C378.763 890.608 376.629 890.322 374.902 887.82C374.598 885.652 374.69 886.327 375.579 884.04C379.086 876.216 386.093 875.218 390.761 869.092C392.225 867.171 385.392 855.47 384.076 852.95C380.741 846.562 377.5 840.125 374.352 833.642C364.971 814.358 354.487 788.423 348.232 767.917C347.046 764.169 346.333 761.429 345.472 757.585Z"/><path fill="#9B5834" d="M345.472 757.585C431.231 789.689 555.954 791.378 644.554 769.47C657.355 766.305 670.808 762.568 683.038 757.606L679.835 767.992C678.119 767.481 673.928 769.096 671.967 769.705C593.358 797.235 486.19 798.55 404.786 782.643C393.479 780.395 382.274 777.663 371.202 774.453C366.626 773.135 361.363 771.2 357.004 770.041C355.04 769.228 350.227 767.215 348.232 767.917C347.046 764.169 346.333 761.429 345.472 757.585Z"/><path fill="#9B5834" d="M426.581 805.315C429.134 805.958 436.006 807.467 437.897 808.818C441.4 816.037 470.607 820.387 478.975 821.727C470.791 842.541 470.796 863.296 465.003 884.462C463.923 888.407 453.216 890.555 449.645 891.248C450.698 888.851 452.255 888.506 453.727 886.693C459.456 879.549 458.936 867.24 459.703 858.895C461.294 841.584 458.266 830.585 443.108 820.709C438.084 817.435 430.398 810.231 426.581 805.315Z"/><path fill="#9B5834" d="M589.643 808.797C592.295 808.111 596.731 806.762 599.253 806.818L599.727 807.394C598.926 809.181 595.064 812.864 593.69 813.936C576.134 827.64 564.242 833.772 567.596 858.954C569.367 872.243 567.112 881.226 578.481 891.2C565.62 888.904 563.17 889.109 560.947 875.988C557.828 857.582 555.404 839.414 549.48 821.657C554.542 821.039 561.081 819.825 566.043 818.585C571.259 817.281 588.115 813.778 589.643 808.797Z"/><path fill="#E6A56B" d="M348.232 767.917C350.227 767.215 355.04 769.228 357.004 770.041C359.849 778.699 362.475 787.473 365.575 796.043C370.004 808.286 375.081 820.394 380.041 832.433C384.147 842.397 389.383 852.19 392.969 862.321C393.719 864.439 395.056 868.048 394.066 870.196C393.059 872.378 379.534 883.128 376.741 885.188C375.755 884.53 376.121 884.934 375.579 884.04C379.086 876.216 386.093 875.218 390.761 869.092C392.225 867.171 385.392 855.47 384.076 852.95C380.741 846.562 377.5 840.125 374.352 833.642C364.971 814.358 354.487 788.423 348.232 767.917Z"/><path fill="#E6A56B" d="M671.967 769.705C673.928 769.096 678.119 767.481 679.835 767.992C669.733 801.043 654.499 832.817 638.672 863.414C637.708 865.278 637.381 867.511 637.843 869.55C641.792 875.546 648.907 875.813 652.913 885.477L652.166 886.591L651.362 886.534C645.721 878.954 640.084 877.416 635.383 870.343C634.441 868.926 634.845 867.038 635.381 865.391C640.397 849.976 647.109 834.214 653.338 819.207C660.261 802.527 665.674 786.53 671.967 769.705Z"/><path fill="#F8E6C1" d="M705.313 515.911C710.954 522.664 727.497 543.773 731.316 551.122C739.117 562.534 747.591 577.707 753.822 589.985C760.366 603.632 765.468 613.677 768.457 628.68C769.12 634.948 768.703 639.264 766.897 645.412C765.575 646.47 759.272 651.611 757.977 652.22C745.308 662.547 725.525 668.893 709.632 671.756C709.072 667.053 708.501 663.107 707.648 658.451C706.24 646.882 702.677 633.592 699.694 622.408C696.245 609.668 691.9 597.272 687.666 584.777C682.228 570.432 677.465 558.198 671.163 544.14L673.176 543.766L673.448 543.527C684.753 534.379 689.415 532.179 700.724 520.989L701.143 520.425C702.748 518.879 703.863 517.587 705.313 515.911Z"/><path fill="#A1A47A" d="M753.822 589.985C760.366 603.632 765.468 613.677 768.457 628.68C769.12 634.948 768.703 639.264 766.897 645.412C765.575 646.47 759.272 651.611 757.977 652.22C745.308 662.547 725.525 668.893 709.632 671.756C709.072 667.053 708.501 663.107 707.648 658.451C706.24 646.882 702.677 633.592 699.694 622.408C703.213 621.091 706.794 619.603 710.29 618.199L710.896 617.894C723.256 612.429 739.035 603.79 749.121 594.711L749.247 594.411L753.822 589.985Z"/><path fill="#F8E6C1" d="M766.437 630.076L768.457 628.68C769.12 634.948 768.703 639.264 766.897 645.412C765.575 646.47 759.272 651.611 757.977 652.22C745.308 662.547 725.525 668.893 709.632 671.756C709.072 667.053 708.501 663.107 707.648 658.451C711.232 656.991 717.142 656.311 722.059 654.35L722.375 654.471C738.36 647.846 752.72 640.942 766.437 630.076Z"/><path fill="#E3C29E" d="M722.375 654.471C724.743 663.391 743.01 658.596 748.773 656.058C751.914 654.675 754.562 652.741 757.977 652.22C745.308 662.547 725.525 668.893 709.632 671.756C709.072 667.053 708.501 663.107 707.648 658.451C711.232 656.991 717.142 656.311 722.059 654.35L722.375 654.471Z"/><path fill="#90906B" d="M710.29 618.199C713.87 623.261 719.689 647.255 722.059 654.35C717.142 656.311 711.232 656.991 707.648 658.451C706.24 646.882 702.677 633.592 699.694 622.408C703.213 621.091 706.794 619.603 710.29 618.199Z"/><path fill="#F8E6C1" d="M753.822 589.985C760.366 603.632 765.468 613.677 768.457 628.68L766.437 630.076C764.111 624.046 752.579 598.42 749.121 594.711L749.247 594.411L753.822 589.985Z"/><path fill="#A1A47A" d="M705.313 515.911C710.954 522.664 727.497 543.773 731.316 551.122C729.592 552.741 728.443 553.862 726.896 555.643L726.438 555.819C721.406 563.339 703.084 575.666 694.942 580.597L694.604 580.566C692.304 581.991 689.991 583.395 687.666 584.777C682.228 570.432 677.465 558.198 671.163 544.14L673.176 543.766L673.448 543.527C684.753 534.379 689.415 532.179 700.724 520.989L701.143 520.425C702.748 518.879 703.863 517.587 705.313 515.911Z"/><path fill="#F8E6C1" d="M705.313 515.911C710.954 522.664 727.497 543.773 731.316 551.122C729.592 552.741 728.443 553.862 726.896 555.643L726.438 555.819C724.734 553.822 719.312 545.493 717.231 542.584C711.888 535.265 706.385 528.065 700.724 520.989L701.143 520.425C702.748 518.879 703.863 517.587 705.313 515.911Z"/><path fill="#90906B" d="M671.163 544.14L673.176 543.766C679.314 549.894 689.378 573.144 694.604 580.566C692.304 581.991 689.991 583.395 687.666 584.777C682.228 570.432 677.465 558.198 671.163 544.14Z"/><path fill="#E3C29E" d="M694.604 580.566L694.942 580.597C696.525 586.022 701.948 596.08 704.305 601.847C705.513 604.803 709.802 616.045 710.896 617.894L710.29 618.199C706.794 619.603 703.213 621.091 699.694 622.408C696.245 609.668 691.9 597.272 687.666 584.777C689.991 583.395 692.304 581.991 694.604 580.566Z"/><path fill="white" d="M731.316 551.122C739.117 562.534 747.591 577.707 753.822 589.985L749.247 594.411C745.769 587.68 742.059 581.071 738.124 574.596C735.953 570.956 727.556 558.569 726.896 555.643C728.443 553.862 729.592 552.741 731.316 551.122Z"/><path fill="#F8E6C1" d="M322.288 516.067C323.895 518.499 324.238 518.971 326.386 520.921L326.775 521.26C336.003 529.98 342.742 535.482 353.336 542.529L354.112 543.3L356.842 544.548C351.084 557.018 344.828 571.56 340.329 584.556C335.764 597.056 331.682 609.727 328.092 622.541C325.906 630.12 324.065 637.796 322.577 645.543C322.301 646.96 320.049 659.253 319.82 659.857C319.102 663.496 318.591 667.789 318.061 671.511C303.982 668.986 287.876 663.947 276.004 655.755C271.778 653.85 264.736 648.018 261.293 644.769C255.476 627.642 265.937 605.588 273.916 590.342C279.397 578.128 289.124 562.49 296.208 551.226C305.312 538.568 312.272 528.289 322.288 516.067Z"/><path fill="#A1A47A" d="M273.916 590.342L278.244 594.466L278.378 594.742C289.954 604.114 303.267 612.849 317.232 618.215L318.04 618.717L328.092 622.541C325.906 630.12 324.065 637.796 322.577 645.543C322.301 646.96 320.049 659.253 319.82 659.857C319.102 663.496 318.591 667.789 318.061 671.511C303.982 668.986 287.876 663.947 276.004 655.755C271.778 653.85 264.736 648.018 261.293 644.769C255.476 627.642 265.937 605.588 273.916 590.342Z"/><defs><linearGradient id="gradient_0" gradientUnits="userSpaceOnUse" x1="298.46503" y1="604.12958" x2="273.98831" y2="653.49841"><stop offset="0" stop-color="#DECE8E"/><stop offset="1" stop-color="#FCE7C7"/></linearGradient></defs><path fill="url(#gradient_0)" d="M273.916 590.342L278.244 594.466L278.378 594.742C272.417 603.109 266.107 619.602 261.781 629.315C274.112 639.976 290.083 648.874 305.403 654.523L305.719 654.577C308.326 655.357 317.85 657.901 319.548 659.064L319.82 659.857C319.102 663.496 318.591 667.789 318.061 671.511C303.982 668.986 287.876 663.947 276.004 655.755C271.778 653.85 264.736 648.018 261.293 644.769C255.476 627.642 265.937 605.588 273.916 590.342Z"/><path fill="#E3C29E" d="M305.403 654.523L305.719 654.577C308.326 655.357 317.85 657.901 319.548 659.064L319.82 659.857C319.102 663.496 318.591 667.789 318.061 671.511C303.982 668.986 287.876 663.947 276.004 655.755C283.959 655.472 300.32 664.385 305.403 654.523Z"/><path fill="#90906B" d="M305.719 654.577C308.023 645.542 312.901 628.591 316.828 619.507C317.232 619.243 317.636 618.98 318.04 618.717L328.092 622.541C325.906 630.12 324.065 637.796 322.577 645.543C322.301 646.96 320.049 659.253 319.82 659.857L319.548 659.064C317.85 657.901 308.326 655.357 305.719 654.577Z"/><path fill="#A1A47A" d="M322.288 516.067C323.895 518.499 324.238 518.971 326.386 520.921L326.775 521.26C336.003 529.98 342.742 535.482 353.336 542.529L354.112 543.3L356.842 544.548C351.084 557.018 344.828 571.56 340.329 584.556C337.821 583.235 335.34 581.861 332.89 580.434L332.698 580.454C329.029 577.88 324.38 575.322 320.519 572.66C312.881 567.394 307.253 562.555 300.888 555.903L300.668 555.913L296.208 551.226C305.312 538.568 312.272 528.289 322.288 516.067Z"/><path fill="#F8E6C1" d="M322.288 516.067C323.895 518.499 324.238 518.971 326.386 520.921L326.775 521.26C319.82 529.124 306.157 547.185 300.888 555.903L300.668 555.913L296.208 551.226C305.312 538.568 312.272 528.289 322.288 516.067Z"/><path fill="#90906B" d="M354.112 543.3L356.842 544.548C351.084 557.018 344.828 571.56 340.329 584.556C337.821 583.235 335.34 581.861 332.89 580.434C338.022 570.198 344.023 560.426 349.579 550.422C350.953 547.949 352.38 545.541 354.112 543.3Z"/><path fill="#E3C29E" d="M332.698 580.454L332.89 580.434C335.34 581.861 337.821 583.235 340.329 584.556C335.764 597.056 331.682 609.727 328.092 622.541L318.04 618.717L317.232 618.215C318.903 614.273 320.235 609.448 321.986 605.246C325.444 596.943 329.283 588.749 332.698 580.454Z"/><path fill="white" d="M296.208 551.226L300.668 555.913C293.68 566.732 286.961 577.451 281.228 588.986C280.411 590.629 279.276 593.023 278.244 594.466L273.916 590.342C279.397 578.128 289.124 562.49 296.208 551.226Z"/><path fill="#F8E6C1" d="M449.965 473.761C451.608 474.034 453.312 474.276 454.923 474.667C466.255 476.674 477.769 477.8 489.215 478.996C490.253 479.032 494.664 479.108 495.377 479.32C507.919 479.742 520.484 480.107 533.025 479.325C534.329 482.689 535.091 487.033 535.603 490.623L541.109 490.406C541.129 490.638 541.24 492.149 541.305 492.325C541.988 505.13 541.897 512.712 538.546 525.092C536.722 525.262 534.682 525.506 532.868 525.519C519.812 526.161 508.473 525.901 495.459 525.469C492.621 525.143 490.133 525.239 487.17 524.724C475.042 523.585 466.063 522.487 454.089 520.366L447.469 519.014C444.293 507.312 443.208 497.251 445.507 485.153L445.671 484.635C446.768 480.49 447.829 477.47 449.965 473.761Z"/><path fill="#F8E6C1" d="M449.965 473.761C451.608 474.034 453.312 474.276 454.923 474.667C466.255 476.674 477.769 477.8 489.215 478.996C488.003 483.426 487.565 485.851 487.006 490.44C486.927 491.851 486.908 493.324 486.607 494.695C486.255 505.763 486.354 512.924 488.823 523.944C487.853 524.704 488.401 524.438 487.17 524.724C475.042 523.585 466.063 522.487 454.089 520.366L447.469 519.014C444.293 507.312 443.208 497.251 445.507 485.153L445.671 484.635C446.768 480.49 447.829 477.47 449.965 473.761Z"/><path fill="#E3C29E" d="M449.965 473.761C451.608 474.034 453.312 474.276 454.923 474.667C466.255 476.674 477.769 477.8 489.215 478.996C488.003 483.426 487.565 485.851 487.006 490.44C486.927 491.851 486.908 493.324 486.607 494.695C486.577 493.538 486.531 492.381 486.471 491.225C485.396 490.051 471.921 489.164 469.258 488.809C463.269 488.01 456.871 487.065 450.865 486.434L450.792 486.086C448.993 486.102 446.974 485.857 445.671 484.635C446.768 480.49 447.829 477.47 449.965 473.761Z"/><path fill="#90906B" d="M449.965 473.761C451.608 474.034 453.312 474.276 454.923 474.667C452.823 476.53 451.476 483.252 450.792 486.086C448.993 486.102 446.974 485.857 445.671 484.635C446.768 480.49 447.829 477.47 449.965 473.761Z"/><path fill="#A1A47A" d="M445.671 484.635C446.974 485.857 448.993 486.102 450.792 486.086L450.865 486.434C449.027 497.327 449.279 510.224 454.089 520.366L447.469 519.014C444.293 507.312 443.208 497.251 445.507 485.153L445.671 484.635Z"/><path fill="#E3C29E" d="M489.215 478.996C490.253 479.032 494.664 479.108 495.377 479.32C507.919 479.742 520.484 480.107 533.025 479.325C534.329 482.689 535.091 487.033 535.603 490.623L535.507 490.93C532.387 490.917 528.9 491.171 525.747 491.325C514.607 491.87 503.68 491.492 492.543 490.913L492.394 490.632L487.006 490.44C487.565 485.851 488.003 483.426 489.215 478.996Z"/><path fill="#90906B" d="M489.215 478.996C490.253 479.032 494.664 479.108 495.377 479.32C493.496 480.718 492.864 487.781 492.394 490.632L487.006 490.44C487.565 485.851 488.003 483.426 489.215 478.996Z"/><path fill="#A1A47A" d="M487.006 490.44L492.394 490.632L492.543 490.913C491.573 498.098 491.501 519.781 495.459 525.469C492.621 525.143 490.133 525.239 487.17 524.724C488.401 524.438 487.853 524.704 488.823 523.944C486.354 512.924 486.255 505.763 486.607 494.695C486.908 493.324 486.927 491.851 487.006 490.44Z"/><path fill="#A1A47A" d="M541.109 490.406C541.129 490.638 541.24 492.149 541.305 492.325C541.988 505.13 541.897 512.712 538.546 525.092C536.722 525.262 534.682 525.506 532.868 525.519C535.659 514.799 537.575 501.949 535.507 490.93L535.603 490.623L541.109 490.406Z"/><path fill="#F8E6C1" d="M355.038 438.913C361.688 442.893 368.694 447.023 375.755 450.235C377.118 450.798 378.953 451.484 380.187 452.186C390.979 457.14 398.961 459.53 409.72 463.663L415.007 465.194C427.567 468.903 437.143 471.097 449.965 473.761C447.829 477.47 446.768 480.49 445.671 484.635L445.507 485.153C443.208 497.251 444.293 507.312 447.469 519.014C436.832 516.955 424.36 513.397 414.073 509.979L407.371 507.842C397.888 504.306 387.325 500.138 378.433 495.424C375.934 494.267 373.89 493.402 371.589 491.845C367.648 489.802 355.206 482.762 353.52 479.399C349.6 471.579 347.721 457.43 349.722 448.904C351.152 444.602 352.237 442.647 355.038 438.913Z"/><path fill="#F8E6C1" d="M415.007 465.194C427.567 468.903 437.143 471.097 449.965 473.761C447.829 477.47 446.768 480.49 445.671 484.635L445.507 485.153C443.208 497.251 444.293 507.312 447.469 519.014C436.832 516.955 424.36 513.397 414.073 509.979L407.371 507.842C404.483 493.45 402.547 492.444 405.179 476.26L405.232 475.899C407.51 475.977 408.283 476.145 410.546 476.609C411.953 472.386 413.07 469.169 415.007 465.194Z"/><path fill="#E3C29E" d="M415.007 465.194C427.567 468.903 437.143 471.097 449.965 473.761C447.829 477.47 446.768 480.49 445.671 484.635L445.507 485.153C432.562 482.62 423.158 480.648 410.6 476.963L410.546 476.609C411.953 472.386 413.07 469.169 415.007 465.194Z"/><path fill="#A1A47A" d="M405.232 475.899C407.51 475.977 408.283 476.145 410.546 476.609L410.6 476.963C408.316 487.762 409.831 499.841 414.073 509.979L407.371 507.842C404.483 493.45 402.547 492.444 405.179 476.26L405.232 475.899Z"/><path fill="#F8E6C1" d="M355.038 438.913C361.688 442.893 368.694 447.023 375.755 450.235C372.944 454.568 371.898 456.46 370.425 461.498L370.232 461.876C367.531 472.678 368.562 479.4 371.351 490.246C371.598 491.204 371.511 490.73 371.589 491.845C367.648 489.802 355.206 482.762 353.52 479.399C349.6 471.579 347.721 457.43 349.722 448.904C351.152 444.602 352.237 442.647 355.038 438.913Z"/><path fill="#E3C29E" d="M355.038 438.913C361.688 442.893 368.694 447.023 375.755 450.235C372.944 454.568 371.898 456.46 370.425 461.498L370.232 461.876C369.024 460.692 361.405 456.724 359.268 455.436C355.48 453.152 353.316 451.669 349.722 448.904C351.152 444.602 352.237 442.647 355.038 438.913Z"/><path fill="#E3C29E" d="M375.755 450.235C377.118 450.798 378.953 451.484 380.187 452.186C390.979 457.14 398.961 459.53 409.72 463.663L415.007 465.194C413.07 469.169 411.953 472.386 410.546 476.609C408.283 476.145 407.51 475.977 405.232 475.899L405.179 476.26C404.458 475.098 376.556 464.735 375.139 464.819L375.046 464.462C373.208 463.104 372.451 462.477 370.425 461.498C371.898 456.46 372.944 454.568 375.755 450.235Z"/><path fill="#90906B" d="M375.755 450.235C377.118 450.798 378.953 451.484 380.187 452.186C377.856 456.697 376.776 459.722 375.046 464.462C373.208 463.104 372.451 462.477 370.425 461.498C371.898 456.46 372.944 454.568 375.755 450.235Z"/><path fill="#90906B" d="M409.72 463.663L415.007 465.194C413.07 469.169 411.953 472.386 410.546 476.609C408.283 476.145 407.51 475.977 405.232 475.899C406.381 471.146 407.735 468.117 409.72 463.663Z"/><path fill="#A1A47A" d="M370.425 461.498C372.451 462.477 373.208 463.104 375.046 464.462L375.139 464.819C373.255 475.566 374.874 485.196 378.433 495.424C375.934 494.267 373.89 493.402 371.589 491.845C371.511 490.73 371.598 491.204 371.351 490.246C368.562 479.4 367.531 472.678 370.232 461.876L370.425 461.498Z"/><path fill="#F8E6C1" d="M611.6 465.66C613.349 464.957 615.976 464.263 617.844 463.709C619.169 468.218 621.025 469.712 621.833 474.913L622.162 475.505C623.739 483.912 624.433 490.239 622.315 498.626C621.797 500.679 620.454 506.108 620.472 507.884C617.997 508.782 615.507 509.636 613.001 510.445C602.041 513.82 590.952 516.761 579.759 519.261L573.571 520.384C562.365 522.394 549.912 524.394 538.546 525.092C541.897 512.712 541.988 505.13 541.305 492.325C541.24 492.149 541.129 490.638 541.109 490.406L535.603 490.623C535.091 487.033 534.329 482.689 533.025 479.325C534.281 479.078 537.276 478.979 538.684 478.891C549.012 477.988 562.584 476.796 572.601 474.646L577.94 473.76C590.742 471.188 599.155 469.444 611.6 465.66Z"/><path fill="#F8E6C1" d="M611.6 465.66C613.349 464.957 615.976 464.263 617.844 463.709C619.169 468.218 621.025 469.712 621.833 474.913L622.162 475.505C623.739 483.912 624.433 490.239 622.315 498.626C621.797 500.679 620.454 506.108 620.472 507.884C617.997 508.782 615.507 509.636 613.001 510.445C602.041 513.82 590.952 516.761 579.759 519.261C583.606 507.305 584.081 498.255 582.377 485.952L582.158 485.879C579.542 485.619 579.346 485.745 576.742 486.44C575.938 482.849 574.988 477.423 572.601 474.646L577.94 473.76C590.742 471.188 599.155 469.444 611.6 465.66Z"/><path fill="#E3C29E" d="M611.6 465.66C613.349 464.957 615.976 464.263 617.844 463.709C619.169 468.218 621.025 469.712 621.833 474.913C619.659 475.513 619.061 475.842 617.007 476.861L617.002 477.266C606.004 480.469 595.241 482.869 583.987 484.961C583.306 485.087 582.822 485.469 582.377 485.952L582.158 485.879C579.542 485.619 579.346 485.745 576.742 486.44C575.938 482.849 574.988 477.423 572.601 474.646L577.94 473.76C590.742 471.188 599.155 469.444 611.6 465.66Z"/><path fill="#90906B" d="M611.6 465.66C613.349 464.957 615.976 464.263 617.844 463.709C619.169 468.218 621.025 469.712 621.833 474.913C619.659 475.513 619.061 475.842 617.007 476.861C615.942 473.671 614.338 467.438 611.6 465.66Z"/><path fill="#90906B" d="M572.601 474.646L577.94 473.76C579.891 477.426 581.693 481.72 582.158 485.879C579.542 485.619 579.346 485.745 576.742 486.44C575.938 482.849 574.988 477.423 572.601 474.646Z"/><path fill="#A1A47A" d="M617.007 476.861C619.061 475.842 619.659 475.513 621.833 474.913L622.162 475.505C623.739 483.912 624.433 490.239 622.315 498.626C621.797 500.679 620.454 506.108 620.472 507.884C617.997 508.782 615.507 509.636 613.001 510.445C617.968 499.958 618.8 488.574 617.002 477.266L617.007 476.861Z"/><path fill="#E3C29E" d="M572.601 474.646C574.988 477.423 575.938 482.849 576.742 486.44C571.388 486.864 545.723 489.597 541.799 490.961L541.305 492.325C541.24 492.149 541.129 490.638 541.109 490.406L535.603 490.623C535.091 487.033 534.329 482.689 533.025 479.325C534.281 479.078 537.276 478.979 538.684 478.891C549.012 477.988 562.584 476.796 572.601 474.646Z"/><path fill="#90906B" d="M533.025 479.325C534.281 479.078 537.276 478.979 538.684 478.891C539.733 482.646 540.774 486.505 541.109 490.406L535.603 490.623C535.091 487.033 534.329 482.689 533.025 479.325Z"/><path fill="#A1A47A" d="M576.742 486.44C579.346 485.745 579.542 485.619 582.158 485.879L582.377 485.952C584.081 498.255 583.606 507.305 579.759 519.261L573.571 520.384C577.899 510.279 578.902 497.197 576.742 486.44Z"/><path fill="#B16F46" d="M622.366 148.616C621.851 147.681 621.324 147.386 621.785 146.433C633.299 122.599 660.303 113.159 684.249 120.979C698.325 125.602 709.969 135.659 716.588 148.914C720.356 156.4 723.191 166.794 722.511 175.246C722.824 183.665 720.158 192.88 715.956 200.134C710.759 208.897 701.729 217.442 692.154 221.112C689.332 215.936 686.254 211.289 683.058 206.347C683.693 205.91 686.378 204.005 686.904 203.799C688.859 202.089 691.13 199.905 692.747 197.856C698.605 190.572 701.229 181.21 700.011 171.942C698.93 163.303 694.9 155.88 687.997 150.522C680.971 144.995 672.02 142.52 663.152 143.653C652.412 145.039 645.159 150.776 638.809 159.111C635.643 156.578 625.888 149.752 622.366 148.616Z"/><path fill="#E6A56B" d="M622.366 148.616C621.851 147.681 621.324 147.386 621.785 146.433C633.299 122.599 660.303 113.159 684.249 120.979C698.325 125.602 709.969 135.659 716.588 148.914C720.356 156.4 723.191 166.794 722.511 175.246L721.809 174.5C721.903 172.408 722.153 169.922 721.086 168.236L720.463 169.155C716.491 161.868 716.02 155.063 710.237 147.237C692.158 122.77 656.875 116.054 633.852 137.784C631.244 140.246 624.981 146.898 622.366 148.616Z"/><path fill="#9B5834" d="M686.904 203.799C691.881 206.394 703.557 204.595 708.603 202.256C710.93 201.177 713.384 200.321 715.956 200.134C710.759 208.897 701.729 217.442 692.154 221.112C689.332 215.936 686.254 211.289 683.058 206.347C683.693 205.91 686.378 204.005 686.904 203.799Z"/><path fill="#B16F46" d="M306.462 167.935C306.553 165.305 306.977 163.105 307.597 160.568C311.307 145.977 320.67 133.462 333.62 125.785C356.197 112.353 385.725 116.942 401.727 138.124C403.495 140.464 404.955 143.002 406.429 145.532L406.859 146.68C406.294 147.753 392.394 156.711 389.551 159.019C380.47 147.353 369.896 141.441 354.756 143.899C326.737 148.449 318.921 184.939 340.528 202.262L345.583 205.732C342.314 210.874 339.681 215.381 336.712 220.706C336.412 220.594 336.111 220.482 335.811 220.37C324.664 215.937 315.7 207.31 310.845 196.341C306.994 188.908 304.893 176.158 306.462 167.935Z"/><path fill="#E6A56B" d="M306.462 167.935C306.553 165.305 306.977 163.105 307.597 160.568C311.307 145.977 320.67 133.462 333.62 125.785C356.197 112.353 385.725 116.942 401.727 138.124C403.495 140.464 404.955 143.002 406.429 145.532L404.812 146.72C403.042 146.323 396.841 139.86 395.007 138.135C366.786 111.592 323.14 127.051 310.595 161.614C309.657 164.197 308.355 170.159 306.921 172.161C306.285 170.736 306.453 169.513 306.462 167.935Z"/><path fill="#9B5834" d="M310.845 196.341C319.936 201.809 329.949 208.168 340.528 202.262L345.583 205.732C342.314 210.874 339.681 215.381 336.712 220.706C336.412 220.594 336.111 220.482 335.811 220.37C324.664 215.937 315.7 207.31 310.845 196.341Z"/><path fill="#F8E6C1" d="M651.317 450.53C659.372 446.621 665.183 443.399 672.905 438.803C675.763 442.957 676.91 445.091 678.283 449.959C679.607 458.981 678.998 471.842 673.706 479.717C671.145 483.527 660.516 489.657 656.066 491.921L649.148 495.628C639.603 500.285 630.372 504.058 620.472 507.884C620.454 506.108 621.797 500.679 622.315 498.626C624.433 490.239 623.739 483.912 622.162 475.505L621.833 474.913C621.025 469.712 619.169 468.218 617.844 463.709C628.184 460.18 636.38 457.196 646.409 452.875L651.317 450.53Z"/><path fill="#F8E6C1" d="M651.317 450.53C659.372 446.621 665.183 443.399 672.905 438.803C675.763 442.957 676.91 445.091 678.283 449.959C679.607 458.981 678.998 471.842 673.706 479.717C671.145 483.527 660.516 489.657 656.066 491.921C656.004 490.54 657.144 485.684 657.514 484.207C659.692 475.498 659.257 470.204 657.378 461.533L657.158 461.528C655.479 456.592 654.433 454.696 651.317 450.53Z"/><path fill="#E3C29E" d="M651.317 450.53C659.372 446.621 665.183 443.399 672.905 438.803C675.763 442.957 676.91 445.091 678.283 449.959C676.1 450.863 658.978 460.252 657.378 461.533L657.158 461.528C655.479 456.592 654.433 454.696 651.317 450.53Z"/><path fill="#E3C29E" d="M646.409 452.875L651.317 450.53C654.433 454.696 655.479 456.592 657.158 461.528C655.637 462.465 653.915 463.698 652.228 464.073L652.15 464.408C646.251 466.935 641.219 469.036 635.16 471.1C632.436 472.028 624.269 474.457 622.162 475.505L621.833 474.913C621.025 469.712 619.169 468.218 617.844 463.709C628.184 460.18 636.38 457.196 646.409 452.875Z"/><path fill="#90906B" d="M646.409 452.875L651.317 450.53C654.433 454.696 655.479 456.592 657.158 461.528C655.637 462.465 653.915 463.698 652.228 464.073C650.494 459.485 649.538 456.786 646.409 452.875Z"/><path fill="#A1A47A" d="M657.158 461.528L657.378 461.533C659.257 470.204 659.692 475.498 657.514 484.207C657.144 485.684 656.004 490.54 656.066 491.921L649.148 495.628C652.264 484.65 654.746 475.786 652.15 464.408L652.228 464.073C653.915 463.698 655.637 462.465 657.158 461.528Z"/><path fill="#B16F46" d="M772.273 681.737C772.703 684.403 773.256 687.337 773.466 690.006C773.848 703.252 773.798 723.128 762.638 732.529C761.021 734.159 759.368 734.793 757.309 735.83C743.277 740.961 734.842 732.233 728.445 720.956C729.602 717.672 731.124 714.225 729.708 710.771C726.108 710.566 722.112 721.992 717.644 722.789C710.036 724.145 710.017 706.578 709.937 702.033C730.309 702.009 750.254 696.19 767.443 685.255C768.997 684.137 770.793 682.913 772.273 681.737Z"/><path fill="#9B5834" d="M772.273 681.737C772.703 684.403 773.256 687.337 773.466 690.006C771.369 690.838 770.564 691.556 768.705 692.895C762.826 696.379 756.706 699.441 750.393 702.057C747.861 703.126 735.302 707.848 734.237 708.635C733.379 713.032 736.379 721.355 738.884 724.884C743.902 731.955 749.101 734.574 757.309 735.83C743.277 740.961 734.842 732.233 728.445 720.956C729.602 717.672 731.124 714.225 729.708 710.771C726.108 710.566 722.112 721.992 717.644 722.789C710.036 724.145 710.017 706.578 709.937 702.033C730.309 702.009 750.254 696.19 767.443 685.255C768.997 684.137 770.793 682.913 772.273 681.737Z"/><path fill="#B16F46" d="M772.273 681.737C772.703 684.403 773.256 687.337 773.466 690.006C771.369 690.838 770.564 691.556 768.705 692.895C767.822 690.362 767.722 687.932 767.443 685.255C768.997 684.137 770.793 682.913 772.273 681.737Z"/><path fill="#E6A56B" d="M768.705 692.895C770.564 691.556 771.369 690.838 773.466 690.006C773.848 703.252 773.798 723.128 762.638 732.529C762.697 729.43 765.884 722.156 766.678 718.46C768.634 709.36 768.576 702.076 768.705 692.895Z"/><path fill="#B16F46" d="M255.76 681.284L260.7 685.044C278.946 696.127 296.517 702.204 318.014 701.992C317.638 708.558 317.851 720.734 310.607 723.273C305.619 722.472 302.921 712.003 298.596 710.827C296.364 712.924 298.468 718.157 299.279 720.746C293.612 731.109 283.292 741.901 270.396 735.722C268.12 734.648 267.112 734.353 265.362 732.559C254.127 722.738 254.327 703.37 254.501 689.789C254.635 687.798 255.435 683.431 255.76 681.284Z"/><path fill="#9B5834" d="M255.76 681.284L260.7 685.044C278.946 696.127 296.517 702.204 318.014 701.992C317.638 708.558 317.851 720.734 310.607 723.273C305.619 722.472 302.921 712.003 298.596 710.827C296.364 712.924 298.468 718.157 299.279 720.746C293.612 731.109 283.292 741.901 270.396 735.722C285.894 733.193 292.733 723.063 295.229 708.655C280.324 704.141 273.489 700.822 260.041 693.576L259.852 693.158L254.501 689.789C254.635 687.798 255.435 683.431 255.76 681.284Z"/><path fill="#B16F46" d="M255.76 681.284L260.7 685.044C260.196 687.908 260.302 691.074 259.852 693.158L254.501 689.789C254.635 687.798 255.435 683.431 255.76 681.284Z"/><path fill="#E6A56B" d="M254.501 689.789L259.852 693.158L260.041 693.576C259.908 703.104 259.926 709.603 261.912 719.152C262.629 722.602 265.271 729.874 265.362 732.559C254.127 722.738 254.327 703.37 254.501 689.789Z"/><path fill="#E6A56B" d="M663.683 148.593C682.207 147.505 695.568 159.169 695.309 178.231C695.191 186.937 689.246 195.601 682.838 200.928C681.683 201.888 681.618 202.083 680.162 201.949L678.837 200.26C667.354 183.588 658.081 174.772 642.858 161.817C648.717 154.043 654.448 150.814 663.683 148.593Z"/><path fill="#E6A56B" d="M356.727 148.616C360.078 148.297 363.459 148.504 366.747 149.229C374.242 150.875 381.32 155.624 385.481 162.094C373.837 170.372 362.687 182.876 353.912 194.073L347.845 202.113C325.564 185.904 328.481 154.11 356.727 148.616Z"/><path fill="#F8E6C1" d="M769.291 650.612C772.566 656.907 774.59 661.114 775.457 668.256C773.738 671.272 773.368 671.867 770.874 674.441C769.67 675.505 768.488 676.633 767.171 677.532C764.343 679.502 762.509 680.765 759.483 682.386C758.244 683.084 756.96 683.831 755.709 684.494L747.486 688.398L743.733 689.74L736.909 691.897L732.653 692.98L729.19 693.853C727.538 694.111 725.792 694.352 724.166 694.694L720.142 695.124C717.318 695.515 713.367 695.485 710.428 695.544C710.611 689.422 710.55 683.82 710.44 677.699L715.639 676.704C717.009 676.409 718.381 676.127 719.756 675.858C722.703 675.349 725.161 674.545 728.015 673.679L731.526 672.695C733.843 671.994 736.02 671.079 738.269 670.186L742.048 668.576C744.661 667.385 747.389 666.011 749.991 664.757L753.323 662.909C755.72 661.365 758.148 659.692 760.522 658.098L763.891 655.722C765.612 654.127 767.702 652.289 769.291 650.612Z"/><path fill="#F8E6C1" d="M769.291 650.612C772.566 656.907 774.59 661.114 775.457 668.256C773.738 671.272 773.368 671.867 770.874 674.441C769.67 675.505 768.488 676.633 767.171 677.532C764.343 679.502 762.509 680.765 759.483 682.386C759.071 681.377 758.548 678.318 758.251 677.013C756.976 671.422 756.007 667.897 753.323 662.909C755.72 661.365 758.148 659.692 760.522 658.098L763.891 655.722C765.612 654.127 767.702 652.289 769.291 650.612Z"/><path fill="#F8E6C1" d="M769.291 650.612C772.566 656.907 774.59 661.114 775.457 668.256C773.738 671.272 773.368 671.867 770.874 674.441C769.434 670.443 768.018 665.385 766.585 661.163L763.891 655.722C765.612 654.127 767.702 652.289 769.291 650.612Z"/><path fill="#A1A47A" d="M766.585 661.163C768.018 665.385 769.434 670.443 770.874 674.441C769.67 675.505 768.488 676.633 767.171 677.532C766.988 673.718 765.321 669.681 764.045 666.067C764.652 663.145 764.42 663.219 766.585 661.163Z"/><path fill="#A1A47A" d="M760.522 658.098L763.891 655.722L766.585 661.163C764.42 663.219 764.652 663.145 764.045 666.067C762.8 663.395 761.583 660.852 760.522 658.098Z"/><path fill="#E3C29E" d="M728.015 673.679L729.28 678.509C730.564 683.474 731.727 687.916 732.653 692.98L729.19 693.853C727.538 694.111 725.792 694.352 724.166 694.694L720.142 695.124C717.318 695.515 713.367 695.485 710.428 695.544C710.611 689.422 710.55 683.82 710.44 677.699L715.639 676.704C717.009 676.409 718.381 676.127 719.756 675.858C722.703 675.349 725.161 674.545 728.015 673.679Z"/><path fill="#E3C29E" d="M715.639 676.704C716.96 678.068 719.309 692.061 720.142 695.124C717.318 695.515 713.367 695.485 710.428 695.544C710.611 689.422 710.55 683.82 710.44 677.699L715.639 676.704Z"/><path fill="#90906B" d="M715.639 676.704C717.009 676.409 718.381 676.127 719.756 675.858C721.746 682.715 723.121 687.55 724.166 694.694L720.142 695.124C719.309 692.061 716.96 678.068 715.639 676.704Z"/><path fill="#F8E6C1" d="M729.19 693.853C728.348 690.856 725.216 678.655 727.533 676.592L729.28 678.509C730.564 683.474 731.727 687.916 732.653 692.98L729.19 693.853Z"/><path fill="#F8E6C1" d="M738.269 670.186C740.384 674.064 743.436 685.356 743.733 689.74L736.909 691.897L732.653 692.98C731.727 687.916 730.564 683.474 729.28 678.509L728.015 673.679L731.526 672.695C733.843 671.994 736.02 671.079 738.269 670.186Z"/><path fill="#A1A47A" d="M728.015 673.679L731.526 672.695C732.321 675.581 735.713 691.075 736.909 691.897L732.653 692.98C731.727 687.916 730.564 683.474 729.28 678.509L728.015 673.679Z"/><path fill="#A1A47A" d="M749.991 664.757L753.323 662.909C756.007 667.897 756.976 671.422 758.251 677.013C758.548 678.318 759.071 681.377 759.483 682.386C758.244 683.084 756.96 683.831 755.709 684.494C755.407 680.402 751.976 668.122 749.991 664.757Z"/><path fill="#A1A47A" d="M738.269 670.186L742.048 668.576C743.363 672.809 744.602 676.815 745.752 681.101C746.217 682.835 747.033 687.121 747.486 688.398L743.733 689.74C743.436 685.356 740.384 674.064 738.269 670.186Z"/><path fill="#F8E6C1" d="M330.715 722.109C338.985 726.335 343.885 728.239 352.535 731.181L356.919 732.648C365.646 735.478 372.819 737.72 381.778 739.781C380.386 745.715 381.414 760.915 381.06 761.881C373.203 759.782 365.404 757.471 357.672 754.952C355.674 754.361 353.577 753.552 351.602 752.844C331.895 745.256 329.319 744.079 330.715 722.109Z"/><path fill="#F8E6C1" d="M330.715 722.109C338.985 726.335 343.885 728.239 352.535 731.181C350.99 738.554 351.278 743.642 351.881 751.24C351.951 752.127 351.923 751.853 351.602 752.844C331.895 745.256 329.319 744.079 330.715 722.109Z"/><path fill="#A1A47A" d="M352.535 731.181L356.919 732.648C355.689 737.258 355.941 750.226 357.672 754.952C355.674 754.361 353.577 753.552 351.602 752.844C351.923 751.853 351.951 752.127 351.881 751.24C351.278 743.642 350.99 738.554 352.535 731.181Z"/><path fill="#F8E6C1" d="M489.975 754.5C493.327 754.537 497.379 754.459 500.63 754.93C509.407 754.981 518.185 754.983 526.963 754.935C529.111 754.981 531.22 755.057 533.369 754.975C534.364 763.234 533.906 768.82 533.461 777.084C521.429 777.826 506.643 777.501 494.643 777.072C491.121 777.05 488.28 777.117 484.793 776.558C486.595 776.541 487.835 776.711 489.44 775.918C488.954 767.665 488.456 762.546 489.975 754.5Z"/><path fill="#A1A47A" d="M489.975 754.5C493.327 754.537 497.379 754.459 500.63 754.93C499.01 754.983 496.176 754.856 494.879 755.584C493.529 759.709 494.344 772.352 494.643 777.072C491.121 777.05 488.28 777.117 484.793 776.558C486.595 776.541 487.835 776.711 489.44 775.918C488.954 767.665 488.456 762.546 489.975 754.5Z"/><path fill="#F8E6C1" d="M572.128 752.268C572.665 752.112 576.053 751.825 576.814 751.751C577.383 755.6 577.543 757.652 577.733 761.301C577.87 763.93 577.052 773.217 577.349 774.241C575.305 774.517 573.45 774.683 571.393 774.856C563.315 775.498 552.398 776.623 544.52 776.553C540.92 777.16 537.126 777.063 533.461 777.084C533.906 768.82 534.364 763.234 533.369 754.975C531.22 755.057 529.111 754.981 526.963 754.935C530.112 754.386 534.915 754.501 538.237 754.477C549.551 754.03 560.852 753.293 572.128 752.268Z"/><path fill="#A1A47A" d="M526.963 754.935C530.112 754.386 534.915 754.501 538.237 754.477C538.953 763.854 539.199 767.115 538.122 776.626C540.038 776.563 542.669 776.396 544.52 776.553C540.92 777.16 537.126 777.063 533.461 777.084C533.906 768.82 534.364 763.234 533.369 754.975C531.22 755.057 529.111 754.981 526.963 754.935Z"/><path fill="#A1A47A" d="M572.128 752.268C572.665 752.112 576.053 751.825 576.814 751.751C577.383 755.6 577.543 757.652 577.733 761.301C577.87 763.93 577.052 773.217 577.349 774.241C575.305 774.517 573.45 774.683 571.393 774.856C572.942 770.843 573.582 756.294 572.128 752.268Z"/><path fill="#F8E6C1" d="M414.612 746.734L420.419 747.694C430.652 749.304 440.917 750.7 451.209 751.881C452.135 751.969 454.821 752.169 455.58 752.359C455.236 760.627 455.147 766.157 455.829 774.526L450.625 774.095C440.29 772.657 430.412 771.622 420.062 769.779L414.07 768.859C414.602 767.355 413.858 763.624 413.741 761.543C413.416 755.772 413.69 752.426 414.612 746.734Z"/><path fill="#A1A47A" d="M451.209 751.881C452.135 751.969 454.821 752.169 455.58 752.359C455.236 760.627 455.147 766.157 455.829 774.526L450.625 774.095C449.795 764.386 450.008 761.498 451.209 751.881Z"/><path fill="#A1A47A" d="M414.612 746.734L420.419 747.694L419.122 748.162C417.755 751.588 418.097 766.452 420.062 769.779L414.07 768.859C414.602 767.355 413.858 763.624 413.741 761.543C413.416 755.772 413.69 752.426 414.612 746.734Z"/><path fill="#F8E6C1" d="M258.98 649.734C261.025 652.436 261.921 653.194 264.425 655.439L267.483 657.623L274.701 662.282C275.335 662.682 277.958 664.282 278.406 664.654L286.416 668.672L289.892 670.123L296.309 672.579C295.021 677.126 292.646 688.553 291.044 691.956L283.983 689.483L280.094 687.907L272.096 684.079L268.044 681.723C265.605 680.288 263.086 678.515 260.72 676.93L256.828 673.627C254.563 671.509 254.041 670.388 252.691 667.602C253.783 659.831 255.048 656.511 258.98 649.734Z"/><path fill="#F8E6C1" d="M286.416 668.672L289.892 670.123L296.309 672.579C295.021 677.126 292.646 688.553 291.044 691.956L283.983 689.483L280.094 687.907C280.903 686.323 282.276 680.231 282.905 678.129C284.012 674.431 284.879 672.289 286.416 668.672Z"/><path fill="#A1A47A" d="M286.416 668.672L289.892 670.123C288.477 671.409 284.708 686.73 283.983 689.483L280.094 687.907C280.903 686.323 282.276 680.231 282.905 678.129C284.012 674.431 284.879 672.289 286.416 668.672Z"/><path fill="#F8E6C1" d="M272.096 684.079C272.69 680.501 275.972 666.965 278.406 664.654L286.416 668.672C284.879 672.289 284.012 674.431 282.905 678.129C282.276 680.231 280.903 686.323 280.094 687.907L272.096 684.079Z"/><path fill="#F8E6C1" d="M258.98 649.734C261.025 652.436 261.921 653.194 264.425 655.439C262.461 659.166 261.354 661.529 259.92 665.497C259.281 667.266 257.665 672.258 256.828 673.627C254.563 671.509 254.041 670.388 252.691 667.602C253.783 659.831 255.048 656.511 258.98 649.734Z"/><path fill="#A1A47A" d="M274.701 662.282C275.335 662.682 277.958 664.282 278.406 664.654C275.972 666.965 272.69 680.501 272.096 684.079L268.044 681.723C269.908 673.931 271.657 669.573 274.701 662.282Z"/><path fill="#A1A47A" d="M264.425 655.439L267.483 657.623C264.57 664.341 262.712 669.873 260.72 676.93L256.828 673.627C257.665 672.258 259.281 667.266 259.92 665.497C261.354 661.529 262.461 659.166 264.425 655.439Z"/><path fill="#F8E6C1" d="M641.609 741.128L646.343 740.063C647.652 750.367 647.58 752.147 646.196 762.308L641.193 763.362C631.794 765.51 622.359 767.499 612.893 769.329L608.358 770.055C609.126 760.948 609.398 756.752 608.235 747.706L612.898 746.883C622.706 745.225 631.894 743.538 641.609 741.128Z"/><path fill="#A1A47A" d="M608.235 747.706L612.898 746.883C614.661 754.899 614.388 761.374 612.893 769.329L608.358 770.055C609.126 760.948 609.398 756.752 608.235 747.706Z"/><path fill="#A1A47A" d="M641.609 741.128L646.343 740.063C647.652 750.367 647.58 752.147 646.196 762.308L641.193 763.362C642.141 758.542 643.824 745.462 641.609 741.128Z"/><path fill="#F8E6C1" d="M455.58 752.359C466.482 753.115 479.192 754.456 489.975 754.5C488.456 762.546 488.954 767.665 489.44 775.918C487.835 776.711 486.595 776.541 484.793 776.558C476.205 776.485 464.303 775.564 455.829 774.526C455.147 766.157 455.236 760.627 455.58 752.359Z"/><path fill="#F8E6C1" d="M381.778 739.781L385.904 740.777C395.438 742.926 405.009 744.912 414.612 746.734C413.69 752.426 413.416 755.772 413.741 761.543C413.858 763.624 414.602 767.355 414.07 768.859C404.921 767.125 395.802 765.243 386.714 763.214L381.06 761.881C381.414 760.915 380.386 745.715 381.778 739.781Z"/><path fill="#A1A47A" d="M381.778 739.781L385.904 740.777C385.391 749.308 385.144 754.699 386.714 763.214L381.06 761.881C381.414 760.915 380.386 745.715 381.778 739.781Z"/><path fill="#F8E6C1" d="M576.814 751.751C586.056 750.929 599.211 749.536 608.235 747.706C609.398 756.752 609.126 760.948 608.358 770.055C598.065 771.758 587.725 773.154 577.349 774.241C577.052 773.217 577.87 763.93 577.733 761.301C577.543 757.652 577.383 755.6 576.814 751.751Z"/><path fill="#F8E6C1" d="M670.573 733.058L675.293 731.443C676.155 739.779 676.891 744.975 675.467 753.365L670.379 754.994C661.916 757.942 654.722 759.824 646.196 762.308C647.58 752.147 647.652 750.367 646.343 740.063C654.499 738.014 662.581 735.677 670.573 733.058Z"/><path fill="#A1A47A" d="M670.573 733.058L675.293 731.443C676.155 739.779 676.891 744.975 675.467 753.365L670.379 754.994C671.461 751.123 672.352 737.024 670.573 733.058Z"/><path fill="#A1A47A" d="M296.309 672.579C297.347 672.872 299.373 673.503 300.345 673.642L302.858 674.549L308.697 675.807L311.717 676.48L317.575 677.275C317.173 683.641 316.846 689.078 317.254 695.509L309.622 695.511L303.744 694.677L298.14 693.698L295.788 693.281C294.353 692.731 292.566 692.343 291.044 691.956C292.646 688.553 295.021 677.126 296.309 672.579Z"/><path fill="#E3C29E" d="M308.697 675.807L311.717 676.48L317.575 677.275C317.173 683.641 316.846 689.078 317.254 695.509L309.622 695.511L303.744 694.677C305.579 687.475 306.135 683.16 308.697 675.807Z"/><path fill="#90906B" d="M308.697 675.807L311.717 676.48C311.423 679.352 307.808 693.714 308.986 695.072C309.155 695.266 309.41 695.364 309.622 695.511L303.744 694.677C305.579 687.475 306.135 683.16 308.697 675.807Z"/><path fill="#E3C29E" d="M302.858 674.549L308.697 675.807C306.135 683.16 305.579 687.475 303.744 694.677L298.14 693.698C298.534 692.697 302.799 675.13 302.858 674.549Z"/><path fill="#F8E6C1" d="M300.345 673.642L302.858 674.549C302.799 675.13 298.534 692.697 298.14 693.698L295.788 693.281C296.152 687.872 299.051 679.47 300.345 673.642Z"/><path fill="#F8E6C1" d="M675.293 731.443C683.59 728.553 689.389 726.561 697.237 722.465C698.589 744.937 695.465 745.69 675.467 753.365C676.891 744.975 676.155 739.779 675.293 731.443Z"/></svg>